G04*
G04 #@! TF.GenerationSoftware,Altium Limited,Altium Designer,22.3.1 (43)*
G04*
G04 Layer_Color=65535*
%FSLAX25Y25*%
%MOIN*%
G70*
G04*
G04 #@! TF.SameCoordinates,982F9C10-974F-4F55-9A6C-92FD6CB4B478*
G04*
G04*
G04 #@! TF.FilePolarity,Positive*
G04*
G01*
G75*
%ADD10C,0.00984*%
%ADD11C,0.01000*%
%ADD12C,0.00787*%
D10*
X159055Y215748D02*
Y224016D01*
X28740Y215748D02*
X159055D01*
X28740D02*
Y224016D01*
D11*
X28808Y-7776D02*
Y10295D01*
X159008D01*
X159008Y-7776D02*
X159008Y10295D01*
D12*
X121521Y21784D02*
X120865Y22440D01*
X119554D01*
X118898Y21784D01*
Y19160D01*
X119554Y18504D01*
X120865D01*
X121521Y19160D01*
Y20472D01*
X120210D01*
X122833Y18504D02*
Y22440D01*
X125457Y18504D01*
Y22440D01*
X126769D02*
Y18504D01*
X128737D01*
X129393Y19160D01*
Y21784D01*
X128737Y22440D01*
X126769D01*
X120866Y28346D02*
Y32282D01*
X122834D01*
X123490Y31626D01*
Y30314D01*
X122834Y29658D01*
X120866D01*
X122178D02*
X123490Y28346D01*
X124802Y32282D02*
X127426Y28346D01*
Y32282D02*
X124802Y28346D01*
X120866Y41140D02*
X123490D01*
X122178D01*
Y37205D01*
X124802Y41140D02*
X127426Y37205D01*
Y41140D02*
X124802Y37205D01*
M02*
