G04*
G04 #@! TF.GenerationSoftware,Altium Limited,Altium Designer,22.3.1 (43)*
G04*
G04 Layer_Physical_Order=2*
G04 Layer_Color=16711680*
%FSLAX25Y25*%
%MOIN*%
G70*
G04*
G04 #@! TF.SameCoordinates,982F9C10-974F-4F55-9A6C-92FD6CB4B478*
G04*
G04*
G04 #@! TF.FilePolarity,Positive*
G04*
G01*
G75*
%ADD16C,0.07087*%
G04:AMPARAMS|DCode=17|XSize=70.87mil|YSize=70.87mil|CornerRadius=14.17mil|HoleSize=0mil|Usage=FLASHONLY|Rotation=0.000|XOffset=0mil|YOffset=0mil|HoleType=Round|Shape=RoundedRectangle|*
%AMROUNDEDRECTD17*
21,1,0.07087,0.04252,0,0,0.0*
21,1,0.04252,0.07087,0,0,0.0*
1,1,0.02835,0.02126,-0.02126*
1,1,0.02835,-0.02126,-0.02126*
1,1,0.02835,-0.02126,0.02126*
1,1,0.02835,0.02126,0.02126*
%
%ADD17ROUNDEDRECTD17*%
G04:AMPARAMS|DCode=18|XSize=173.23mil|YSize=173.23mil|CornerRadius=43.31mil|HoleSize=0mil|Usage=FLASHONLY|Rotation=0.000|XOffset=0mil|YOffset=0mil|HoleType=Round|Shape=RoundedRectangle|*
%AMROUNDEDRECTD18*
21,1,0.17323,0.08661,0,0,0.0*
21,1,0.08661,0.17323,0,0,0.0*
1,1,0.08661,0.04331,-0.04331*
1,1,0.08661,-0.04331,-0.04331*
1,1,0.08661,-0.04331,0.04331*
1,1,0.08661,0.04331,0.04331*
%
%ADD18ROUNDEDRECTD18*%
D16*
X154007Y220807D02*
D03*
X84007D02*
D03*
X114007Y220807D02*
D03*
X74007Y220807D02*
D03*
X64007Y220807D02*
D03*
X104007Y220807D02*
D03*
X94007D02*
D03*
X144007D02*
D03*
X134007D02*
D03*
X124007Y220807D02*
D03*
X44007Y220807D02*
D03*
X54007D02*
D03*
X54008Y-4705D02*
D03*
X44008Y-4705D02*
D03*
X124008D02*
D03*
X134008Y-4705D02*
D03*
X144008Y-4705D02*
D03*
X94008Y-4705D02*
D03*
X104008Y-4705D02*
D03*
X64008D02*
D03*
X74008Y-4705D02*
D03*
X114008D02*
D03*
X84008Y-4705D02*
D03*
X154008Y-4705D02*
D03*
X54008Y5295D02*
D03*
X44008Y5295D02*
D03*
X124008D02*
D03*
X134008Y5295D02*
D03*
X144008Y5295D02*
D03*
X94008D02*
D03*
X104008Y5295D02*
D03*
X64008Y5295D02*
D03*
X74008D02*
D03*
X114008D02*
D03*
X84008Y5295D02*
D03*
X154008Y5295D02*
D03*
D17*
X34007Y220807D02*
D03*
X34008Y-4705D02*
D03*
X34008Y5295D02*
D03*
D18*
X0Y0D02*
D03*
Y216110D02*
D03*
X188236D02*
D03*
Y0D02*
D03*
M02*
