M48
;Layer_Color=9474304
;FILE_FORMAT=2:5
INCH,LZ
;TYPE=PLATED
T1F00S00C0.03937
T2F00S00C0.11811
%
T01
X0034008Y-0004705
X0044008
X0044008Y0005295
X0034008Y0005295
X0054008Y0005295
X0064008Y0005295
X0064008Y-0004705
X0054008Y-0004705
X0074008Y-0004705
Y0005295
X0084008Y0005295
X0084008Y-0004705
X0094008Y-0004705
X0104008Y-0004705
X0104008Y0005295
X0094008Y0005295
X0114008
Y-0004705
X0124008
X0124008Y0005295
X0134008Y0005295
X0144008Y0005295
X0144008Y-0004705
X0154008Y-0004705
X0154008Y0005295
X0134008Y-0004705
X0084007Y0220807
X0074007Y0220807
X0064007Y0220807
X0054007Y0220807
X0044007
X0034007
X0094007
X0104007
X0114007Y0220807
X0124007Y0220807
X0134007Y0220807
X0144007
X0154007
T02
X0Y0
X0188236
X0Y021611
X0188236
M30
